# xmcd
#
# Track frame offsets: 
#        150
#        6314
#        30166
#        48703
#        70764
#        99794
#        124825
#        145855
#        171241
#        187739
#
# Disc length: 2690 seconds
#
# Revision: 1
# Processed by: cddbd v1.5.2PL0 Copyright (c) Steve Scherf et al.
# Submitted via: ExactAudioCopyFreeDBPlugin 1.0
#
DISCID=7a0a800a
DTITLE=Chew - See The Light
DYEAR=1983
DGENRE=Funk
TTITLE0=Chew (Theme)
TTITLE1=Good Good (Feel Alright)
TTITLE2=I Like It
TTITLE3=Gimme Something
TTITLE4=Baby Hold On
TTITLE5=Please Don't Take Your Love
TTITLE6=Tell Me You Love Me
TTITLE7=See The Light
TTITLE8=Yummy Yum
TTITLE9=Your Love
EXTD=YEAR 1983\nJapan Edit
EXTT0=
EXTT1=
EXTT2=
EXTT3=
EXTT4=
EXTT5=
EXTT6=
EXTT7=
EXTT8=
EXTT9=
PLAYORDER=
